<svg id="Layer_1" data-name="Layer 1" xmlns="http://www.w3.org/2000/svg" viewBox="0 0 496 512"><defs><style>.cls-1{fill:#9bf6ff;}.cls-2{fill:#546a76;}</style></defs><rect class="cls-1" width="496" height="512" rx="91.61"/><path class="cls-2" d="M360.28,96.8,172.8,152.17a18.74,18.74,0,0,0-13.13,17.88V323.23a81.75,81.75,0,0,0-18.75-2.3c-31.06,0-56.25,16.79-56.25,37.5s25.19,37.5,56.25,37.5,56.25-16.79,56.25-37.5V221.5l150-43.95V285.73a81.2,81.2,0,0,0-18.75-2.3c-31.06,0-56.25,16.79-56.25,37.5s25.19,37.5,56.25,37.5,56.25-16.79,56.25-37.5V114.67A18.77,18.77,0,0,0,365.9,95.93,19.11,19.11,0,0,0,360.28,96.8Z"/></svg>